# xmcd
# 
# Track frame offsets:
#   300
#   14873
#   35854
#   52458
#   67470
#   84180
#   100951
#   119418
#   135491
# 
# Disc length: 2046 seconds
# 
# Revision: 0
# Processed by: cddbd v1.5.2PL0 Copyright (c) Steve Scherf et al.
# Submitted via: Synapstar 1.0 
# 
DISCID=8f07fa09
DTITLE=Various Artist - Woofers Karaoke Mix 3-9-2010
DYEAR=1900
DGENRE=Country
TTITLE0=Craig Morgan - Bonfire
TTITLE1=Carrie Underwood - Temporary Home
TTITLE2=Lady Antebellum - American Honey
TTITLE3=Nitty Gritty Dirt Band - Fishin' In The Dark
TTITLE4=Darius Rucker - History In The Making
TTITLE5=Reba McEntire - Consider Me Gone
TTITLE6=Kings Of Leon - Use Somebody
TTITLE7=Kings Of Leon - Sex On Fire
TTITLE8=Shinedown - If You Only Knew
EXTD=MediaType: Karaoke CD+G Producer: Unknown
EXTT0=
EXTT1=
EXTT2=
EXTT3=
EXTT4=
EXTT5=
EXTT6=
EXTT7=
EXTT8=
PLAYORDER=
